<?xml version="1.0" encoding="UTF-8" standalone="no"?>
<svg
   xmlns:dc="http://purl.org/dc/elements/1.1/"
   xmlns:cc="http://creativecommons.org/ns#"
   xmlns:rdf="http://www.w3.org/1999/02/22-rdf-syntax-ns#"
   xmlns:svg="http://www.w3.org/2000/svg"
   xmlns="http://www.w3.org/2000/svg"
   xmlns:sodipodi="http://sodipodi.sourceforge.net/DTD/sodipodi-0.dtd"
   xmlns:inkscape="http://www.inkscape.org/namespaces/inkscape"
   width="24"
   height="24"
   viewBox="0 0 24 24"
   version="1.1"
   id="svg3725"
   sodipodi:docname="coins.svg"
   inkscape:version="0.92.4 (5da689c313, 2019-01-14)">
  <metadata
     id="metadata3731">
    <rdf:RDF>
      <cc:Work
         rdf:about="">
        <dc:format>image/svg+xml</dc:format>
        <dc:type
           rdf:resource="http://purl.org/dc/dcmitype/StillImage" />
      </cc:Work>
    </rdf:RDF>
  </metadata>
  <defs
     id="defs3729" />
  <sodipodi:namedview
     pagecolor="#ffffff"
     bordercolor="#666666"
     borderopacity="1"
     objecttolerance="10"
     gridtolerance="10"
     guidetolerance="10"
     inkscape:pageopacity="0"
     inkscape:pageshadow="2"
     inkscape:window-width="3840"
     inkscape:window-height="2004"
     id="namedview3727"
     showgrid="false"
     inkscape:zoom="69.875"
     inkscape:cx="12"
     inkscape:cy="12"
     inkscape:window-x="-16"
     inkscape:window-y="-16"
     inkscape:window-maximized="1"
     inkscape:current-layer="svg3725" />
  <path
     d="M18.5 21.5c2.081 0 4.239-.484 5.5-1.402v.652c0 1.243-2.56 2.25-5.5 2.25-2.939 0-5.5-1.007-5.5-2.25v-.652c1.26.918 3.42 1.402 5.5 1.402zm0-5c2.081 0 4.239-.484 5.5-1.402v.652c0 1.242-2.56 2.25-5.5 2.25-2.939 0-5.5-1.007-5.5-2.25v-.652c1.26.918 3.42 1.402 5.5 1.402zm0 2.5c2.081 0 4.239-.484 5.5-1.401v.651c0 1.243-2.56 2.25-5.5 2.25-2.939 0-5.5-1.007-5.5-2.25v-.651c1.26.917 3.42 1.401 5.5 1.401zm0-5c2.081 0 4.239-.484 5.5-1.401v.651c0 1.243-2.56 2.25-5.5 2.25-2.939 0-5.5-1.007-5.5-2.25v-.651c1.26.917 3.42 1.401 5.5 1.401zm0-13c-2.939 0-5.5 1.007-5.5 2.25s2.561 2.25 5.5 2.25c2.94 0 5.5-1.007 5.5-2.25s-2.56-2.25-5.5-2.25zm.174 3.28v.22h-.354v-.208c-.36-.003-.743-.056-1.058-.152l.162-.343c.269.063.606.126.911.126l.229-.014c.405-.053.486-.301.037-.419-.328-.09-1.335-.166-1.335-.675 0-.284.367-.537 1.054-.593v-.222h.354v.211c.258.005.544.03.863.09l-.128.342c-.243-.051-.514-.099-.779-.099l-.079.001c-.531.02-.573.287-.207.399.602.169 1.394.292 1.394.74-.001.358-.477.549-1.064.596zm-.174 7.22c2.081 0 4.239-.484 5.5-1.402v.652c0 1.243-2.56 2.25-5.5 2.25-2.939 0-5.5-1.007-5.5-2.25v-.652c1.26.918 3.42 1.402 5.5 1.402zm0-5c2.081 0 4.239-.484 5.5-1.402v.652c0 1.243-2.56 2.25-5.5 2.25-2.939 0-5.5-1.007-5.5-2.25v-.652c1.26.918 3.42 1.402 5.5 1.402zm0 2.5c2.081 0 4.239-.484 5.5-1.401v.651c0 1.243-2.56 2.25-5.5 2.25-2.939 0-5.5-1.007-5.5-2.25v-.651c1.26.917 3.42 1.401 5.5 1.401zm-13 2c-2.939 0-5.5 1.007-5.5 2.25s2.561 2.25 5.5 2.25c2.94 0 5.5-1.007 5.5-2.25s-2.56-2.25-5.5-2.25zm.174 3.28v.22h-.353v-.208c-.361-.003-.744-.056-1.058-.152l.162-.343c.269.063.607.126.911.126l.229-.014c.405-.053.487-.301.038-.419-.329-.09-1.335-.166-1.335-.675 0-.284.368-.537 1.054-.593v-.222h.353v.211c.258.005.544.03.863.09l-.128.342c-.243-.051-.513-.099-.779-.099l-.08.001c-.53.02-.572.287-.206.399.602.169 1.393.292 1.393.74-.001.358-.477.549-1.064.596zm-.174 7.22c2.081 0 4.239-.484 5.5-1.402v.652c0 1.243-2.56 2.25-5.5 2.25-2.939 0-5.5-1.007-5.5-2.25v-.652c1.26.918 3.42 1.402 5.5 1.402zm0-5c2.081 0 4.239-.484 5.5-1.402v.652c0 1.243-2.56 2.25-5.5 2.25-2.939 0-5.5-1.007-5.5-2.25v-.652c1.26.918 3.42 1.402 5.5 1.402zm0 2.5c2.081 0 4.239-.484 5.5-1.401v.651c0 1.243-2.56 2.25-5.5 2.25-2.939 0-5.5-1.007-5.5-2.25v-.651c1.26.917 3.42 1.401 5.5 1.401z"
     id="path3723" />
  <path
     style="stroke-width:0.01431127"
     d="M 17.887657,5.4794174 C 15.875245,5.3723541 14.160293,4.8324385 13.399396,4.0663854 13.005958,3.6702809 12.90707,3.2400933 13.114048,2.8250447 c 0.08248,-0.1653933 0.176087,-0.2880827 0.33565,-0.4399281 0.700854,-0.6669537 2.181357,-1.1694585 3.908442,-1.3265832 0.724551,-0.0659175 1.643226,-0.0630656 2.361359,0.00733 1.391564,0.13641 2.597786,0.4860473 3.39081,0.9828654 0.457241,0.2864548 0.735049,0.5979817 0.845436,0.9480509 0.04056,0.1286261 0.04424,0.3436835 0.0082,0.4794275 -0.09127,0.343773 -0.377818,0.6731587 -0.841652,0.9674892 -0.757539,0.4807036 -1.919316,0.8268737 -3.284603,0.9786999 -0.504025,0.05605 -1.448931,0.08368 -1.950026,0.057021 z m 0.790095,-1.0831403 0.0042,-0.1103418 0.150268,-0.018537 c 0.321752,-0.03969 0.615879,-0.1453034 0.75898,-0.2725285 0.129147,-0.1148197 0.178614,-0.2650504 0.135786,-0.4123769 -0.01956,-0.067266 -0.04033,-0.098677 -0.11233,-0.1698618 C 19.463412,3.2631264 19.274229,3.1844303 18.696508,3.0307103 18.491711,2.976218 18.290494,2.9153026 18.249359,2.8953431 18.113047,2.8292023 18.07793,2.7367289 18.160009,2.660056 18.297993,2.5311589 18.716963,2.5158479 19.25112,2.620182 c 0.08479,0.016561 0.156967,0.027306 0.160396,0.023877 0.01604,-0.016034 0.132261,-0.3421506 0.123804,-0.3473773 -0.03568,-0.022053 -0.667376,-0.093828 -0.828343,-0.094119 -0.03053,-5.52e-5 -0.0322,-0.00564 -0.0322,-0.1073928 V 1.9878354 h -0.17889 -0.178891 v 0.1119635 0.1119634 l -0.175313,0.02569 c -0.621262,0.09104 -0.958541,0.3586733 -0.863597,0.6852692 0.056,0.192638 0.304362,0.3430762 0.745529,0.451584 0.06297,0.015488 0.216157,0.0484 0.340417,0.073137 0.340762,0.06784 0.469835,0.1211685 0.517811,0.2139452 0.08784,0.1698552 -0.280864,0.287408 -0.765205,0.243971 -0.182874,-0.016401 -0.429934,-0.055325 -0.596836,-0.094033 -0.05141,-0.011922 -0.09581,-0.019333 -0.09868,-0.016469 -0.0071,0.00715 -0.163162,0.3359437 -0.163162,0.3438574 0,0.00349 0.03703,0.016706 0.08229,0.029363 0.241586,0.067564 0.628616,0.1238706 0.851433,0.1238706 h 0.125312 V 4.3992844 4.506619 h 0.178289 0.178288 z"
     id="path3733"
     inkscape:connector-curvature="0" />
  <path
     style="stroke-width:0.01431127;fill:#ffffff"
     d="M 17.887744,5.4788258 C 15.909427,5.3816305 14.155306,4.8307707 13.401258,4.0699004 13.27605,3.9435596 13.145235,3.7613548 13.093066,3.6406354 12.823782,3.0175171 13.209003,2.3909311 14.170725,1.8877567 c 1.48945,-0.779283 3.963944,-1.07607497 6.192781,-0.7427651 0.905941,0.1354782 1.788317,0.3966714 2.411449,0.7138161 0.426869,0.2172559 0.74213,0.4527854 0.944328,0.705501 0.212134,0.2651353 0.301022,0.5341361 0.26454,0.8005803 -0.03518,0.2569745 -0.157628,0.4737313 -0.406464,0.7195475 -0.231494,0.2286855 -0.462777,0.3861209 -0.851034,0.5793046 -1.184704,0.5894688 -3.046647,0.9031229 -4.838581,0.8150847 z m 0.787032,-1.0799905 c 0,-0.074119 0.0056,-0.1092874 0.01789,-0.1125977 0.0098,-0.00265 0.09195,-0.014907 0.182469,-0.027242 0.3025,-0.041224 0.578946,-0.1440172 0.719108,-0.2673925 C 19.731607,3.8706887 19.778495,3.6777302 19.7066,3.5292149 19.637862,3.3872208 19.438231,3.257539 19.131015,3.1553113 19.049315,3.1281251 18.834347,3.066702 18.653309,3.0188155 18.472272,2.9709291 18.290494,2.9153926 18.249359,2.8954011 18.113259,2.829258 18.077951,2.7367094 18.159686,2.6603572 18.306534,2.5231808 18.749025,2.5157441 19.370355,2.6400102 l 0.04332,0.00866 0.06,-0.1622616 c 0.033,-0.089244 0.05995,-0.1695444 0.05989,-0.1784455 -1.75e-4,-0.025262 -0.363161,-0.075147 -0.719254,-0.098846 l -0.139535,-0.00929 V 2.0938343 1.9878354 h -0.17889 -0.178891 v 0.1134604 0.1134604 l -0.08229,0.00947 c -0.347216,0.03997 -0.658503,0.1493132 -0.815125,0.2863227 -0.156263,0.1366944 -0.198765,0.3191721 -0.111328,0.4779629 0.09677,0.1757351 0.349131,0.3038096 0.787546,0.3996803 0.109851,0.024022 0.273791,0.059531 0.364309,0.078909 0.208327,0.044598 0.310565,0.083021 0.379527,0.1426337 0.07159,0.061881 0.07531,0.1243408 0.01085,0.1819342 -0.166778,0.1490162 -0.665734,0.1624926 -1.261955,0.034084 -0.08974,-0.019328 -0.165299,-0.033008 -0.167906,-0.030402 -0.0062,0.00624 -0.162666,0.3379551 -0.162666,0.3449497 0,0.00876 0.212014,0.062439 0.34347,0.086956 0.183558,0.034235 0.464808,0.06469 0.597408,0.06469 h 0.118156 V 4.3992844 4.506619 h 0.178891 0.17889 z"
     id="path3735"
     inkscape:connector-curvature="0" />
  <path
     style="fill:#ffffff;stroke-width:0.01431127"
     d="M 18.181038,7.9897219 C 16.979609,7.9519505 15.907067,7.773742 14.994629,7.4602832 14.002006,7.119278 13.344551,6.6639157 13.099346,6.1475835 c -0.079,-0.1663581 -0.0913,-0.2555649 -0.09158,-0.6642204 -1.37e-4,-0.1987477 0.0028,-0.3613595 0.0065,-0.3613595 0.0037,0 0.05361,0.031642 0.110912,0.070315 0.585732,0.3953223 1.384337,0.7256692 2.305009,0.9534788 2.384391,0.5899896 5.253788,0.443034 7.323324,-0.3750624 0.412602,-0.1631034 0.891047,-0.4118554 1.156535,-0.601304 l 0.09156,-0.065335 -0.0069,0.3989358 c -0.0077,0.4495212 -0.01215,0.4754959 -0.116441,0.6851612 -0.417431,0.8392156 -2.029341,1.5246582 -4.08722,1.7380342 -0.464431,0.048156 -1.189002,0.076731 -1.610017,0.063495 z"
     id="path3737"
     inkscape:connector-curvature="0" />
  <path
     style="fill:#ffffff;stroke-width:0.01431127"
     d="M 17.780322,10.474375 C 16.382698,10.385468 15.138575,10.097066 14.266331,9.6597919 13.554916,9.3031439 13.148111,8.908041 13.036125,8.4649737 13.011169,8.3662337 13.007513,8.3044369 13.007513,7.9812453 V 7.6107184 l 0.08945,0.063529 c 0.236729,0.1681384 0.645138,0.3870474 0.998211,0.5350448 0.94474,0.3960065 2.04971,0.6460531 3.341682,0.7561979 0.363126,0.030958 1.399474,0.043747 1.776737,0.021927 1.924559,-0.1113153 3.58425,-0.5717283 4.661126,-1.293038 l 0.126593,-0.084794 -0.0063,0.391272 c -0.0071,0.4378453 -0.01419,0.4817491 -0.110003,0.6775476 -0.275747,0.56352 -1.102608,1.073743 -2.28356,1.4090943 -0.621801,0.176571 -1.276783,0.291627 -2.089445,0.367037 -0.280231,0.026 -1.428033,0.03915 -1.731664,0.01984 z"
     id="path3739"
     inkscape:connector-curvature="0" />
  <path
     style="fill:#ffffff;stroke-width:0.01431127"
     d="m 18.009302,12.984748 c -0.04723,-0.0029 -0.198569,-0.01201 -0.336315,-0.02036 -1.069339,-0.06481 -2.144945,-0.286172 -2.969588,-0.611158 -0.979859,-0.386155 -1.57801,-0.899376 -1.680997,-1.442317 -0.01027,-0.05414 -0.01471,-0.216778 -0.01201,-0.440114 l 0.0043,-0.354246 0.07156,0.05133 c 0.142742,0.102396 0.463288,0.285384 0.701253,0.400319 0.87805,0.424091 1.985985,0.717676 3.234347,0.857051 0.825798,0.0922 1.831286,0.103116 2.661896,0.02891 1.691723,-0.151145 3.190751,-0.597285 4.150268,-1.2352 0.07871,-0.05233 0.148629,-0.09753 0.155371,-0.100435 0.0067,-0.0029 0.0091,0.170969 0.0053,0.386394 -0.0074,0.416499 -0.01462,0.467873 -0.08979,0.637842 -0.09015,0.203838 -0.308089,0.457072 -0.550894,0.640104 -0.82193,0.619586 -2.229006,1.042765 -3.906406,1.174854 -0.259481,0.02043 -1.241744,0.03889 -1.438283,0.02703 z"
     id="path3741"
     inkscape:connector-curvature="0" />
  <path
     style="fill:#ffffff;stroke-width:0.01431127"
     d="m 18.123792,15.488132 c -1.092513,-0.03609 -2.137526,-0.20507 -2.998211,-0.484811 -0.351104,-0.114116 -0.54033,-0.18994 -0.837209,-0.33547 -0.412865,-0.202388 -0.680622,-0.386363 -0.908917,-0.624516 -0.13614,-0.142017 -0.206367,-0.241367 -0.279559,-0.395487 -0.07964,-0.167698 -0.09185,-0.256062 -0.09213,-0.666572 -1.37e-4,-0.199404 0.0046,-0.360401 0.01049,-0.357771 0.0059,0.0026 0.07513,0.04758 0.153846,0.09988 1.363344,0.905969 3.820117,1.40584 6.175313,1.256468 1.823829,-0.115671 3.509331,-0.593674 4.520268,-1.281934 l 0.133864,-0.09114 -0.0068,0.397144 c -0.005,0.291786 -0.01246,0.416128 -0.02801,0.468701 -0.127584,0.431308 -0.505345,0.808827 -1.144187,1.143452 -1.127676,0.590677 -2.954253,0.929678 -4.698703,0.87205 z"
     id="path3743"
     inkscape:connector-curvature="0" />
  <path
     style="fill:#ffffff;stroke-width:0.01431127"
     d="m 17.86619,17.97911 c -0.03936,-0.0029 -0.168158,-0.01199 -0.286226,-0.0202 -2.202363,-0.153137 -4.053799,-0.896408 -4.473116,-1.795762 -0.08748,-0.187638 -0.09933,-0.269581 -0.09933,-0.686911 v -0.366413 l 0.08945,0.06353 c 0.287184,0.203974 0.776001,0.455582 1.205724,0.62062 0.994252,0.381847 2.141746,0.611933 3.447272,0.691218 0.310891,0.01888 1.195033,0.01889 1.506416,1.1e-5 1.905362,-0.115504 3.548396,-0.575049 4.618344,-1.291718 l 0.126593,-0.08479 -0.0063,0.391272 c -0.0071,0.437846 -0.01419,0.481749 -0.110003,0.677548 -0.175245,0.358134 -0.551549,0.680966 -1.133227,0.972201 -0.833174,0.417154 -1.910042,0.684996 -3.232623,0.804026 -0.234557,0.02111 -1.456318,0.03986 -1.652951,0.02537 z"
     id="path3745"
     inkscape:connector-curvature="0" />
  <path
     style="fill:#ffffff;stroke-width:0.01431127"
     d="m 17.973524,20.483792 c -1.551356,-0.0845 -2.805108,-0.3667 -3.742397,-0.842369 -0.639619,-0.324604 -1.026006,-0.684865 -1.171914,-1.092673 l -0.04452,-0.124421 -0.0046,-0.405337 -0.0046,-0.405338 0.126228,0.08455 c 0.928975,0.622237 2.305506,1.052227 3.950799,1.23412 0.764233,0.08449 1.818672,0.09277 2.6155,0.02054 1.700557,-0.154146 3.193265,-0.601525 4.156497,-1.245742 l 0.136884,-0.09155 0.0042,0.311355 c 0.0023,0.171854 -0.0029,0.365517 -0.01164,0.432239 -0.01985,0.151923 -0.08066,0.310968 -0.1738,0.454552 -0.08116,0.125115 -0.340859,0.390204 -0.480781,0.490754 -0.851983,0.612248 -2.229834,1.022887 -3.867449,1.15261 -0.260145,0.02061 -1.268259,0.0387 -1.488372,0.02671 z"
     id="path3747"
     inkscape:connector-curvature="0" />
  <path
     style="fill:#ffffff;stroke-width:0.01431127"
     d="m 17.948237,22.980963 c -1.65759,-0.07274 -3.200328,-0.470921 -4.10424,-1.059313 -0.191521,-0.124669 -0.325439,-0.233946 -0.46499,-0.379431 -0.13843,-0.144316 -0.199505,-0.229671 -0.270949,-0.378659 -0.08814,-0.183817 -0.100009,-0.264634 -0.100296,-0.683178 -1.37e-4,-0.199404 0.0046,-0.360401 0.01049,-0.357772 0.0059,0.0026 0.07513,0.04757 0.153846,0.09987 1.364636,0.906759 3.851292,1.412371 6.182469,1.257083 1.859899,-0.123895 3.536429,-0.604207 4.541738,-1.301172 l 0.105244,-0.07296 -0.0069,0.397374 c -0.0053,0.307445 -0.01213,0.41557 -0.03006,0.477779 -0.189168,0.656164 -1.040726,1.231137 -2.391787,1.614939 -1.059783,0.301056 -2.370702,0.440461 -3.624572,0.38544 z"
     id="path3749"
     inkscape:connector-curvature="0" />
  <path
     style="fill:#ffffff;stroke-width:0.01431127"
     d="M 4.9717352,15.483052 C 2.3976448,15.365222 0.32952381,14.529984 0.04190442,13.492075 0.00650955,13.364348 0.00309409,13.152438 0.03443129,13.028409 0.08656158,12.822084 0.26275595,12.549814 0.46027698,12.370357 1.6299031,11.307697 4.5004458,10.766049 7.1255814,11.11267 c 1.936793,0.255732 3.4143896,0.936805 3.7774926,1.74117 0.137,0.303491 0.109884,0.633287 -0.07662,0.931924 -0.543445,0.870162 -2.3566847,1.543349 -4.5319973,1.682558 -0.3322784,0.02126 -1.0141019,0.02886 -1.3227165,0.01473 z m 0.7084079,-1.085496 v -0.112641 l 0.1037567,-0.0098 C 6.0245852,14.252329 6.3427535,14.160267 6.4852869,14.072153 6.7753043,13.892863 6.8251684,13.595464 6.599266,13.392358 6.4513099,13.259333 6.2145833,13.165712 5.6596395,13.020754 5.2371422,12.910393 5.1401141,12.864464 5.1149261,12.76291 c -0.00687,-0.02769 4.29e-5,-0.04807 0.027231,-0.08038 0.1266867,-0.150559 0.5452229,-0.172753 1.1224072,-0.05952 0.08136,0.01596 0.1495223,0.02689 0.1514712,0.0243 0.00794,-0.0106 0.1227835,-0.32867 0.1227835,-0.340078 0,-0.02387 -0.398575,-0.07943 -0.6865517,-0.09571 l -0.1721245,-0.0097 V 12.0966 11.991413 H 5.5012522 5.3223614 v 0.111666 0.111666 l -0.1401665,0.01749 c -0.2890702,0.03608 -0.5196793,0.111139 -0.6906612,0.224807 -0.1631493,0.108462 -0.2367258,0.23555 -0.2245057,0.387788 0.013355,0.16637 0.1080358,0.27597 0.3326142,0.385024 0.1650436,0.08014 0.3078054,0.121181 0.7221806,0.207593 0.2449771,0.05109 0.3599624,0.08193 0.4252163,0.114053 0.1531697,0.0754 0.1872181,0.156351 0.1009412,0.239974 -0.084971,0.08236 -0.1845974,0.106559 -0.4696423,0.114092 -0.2660668,0.007 -0.5141953,-0.01862 -0.8035889,-0.08308 -0.06879,-0.01532 -0.132027,-0.02786 -0.1405273,-0.02786 -0.014211,0 -0.1708944,0.31358 -0.1708944,0.342022 0,0.01513 0.2589429,0.07947 0.4364937,0.108458 0.1694223,0.02766 0.4026389,0.05041 0.516722,0.05041 h 0.091507 v 0.09779 c 0,0.05379 0.00429,0.102088 0.00954,0.107335 0.00525,0.0052 0.088968,0.0095 0.1860465,0.0095 h 0.1765056 z"
     id="path3751"
     inkscape:connector-curvature="0" />
  <path
     style="fill:#ffffff;stroke-width:0.01431127"
     d="M 4.7642218,17.973405 C 3.5712429,17.893761 2.5533259,17.68726 1.6903997,17.349829 1.4702567,17.263746 1.0692023,17.066062 0.90736472,16.963862 0.69136331,16.827458 0.52450532,16.693608 0.37619359,16.537766 0.22036545,16.374027 0.11899802,16.219638 0.05876352,16.054301 0.02077323,15.950021 0.02014384,15.942485 0.01556333,15.53703 c -0.0025565,-0.226297 -2.3886e-4,-0.411449 0.0051504,-0.411449 0.0053892,0 0.03964173,0.02171 0.07611668,0.04823 0.11283723,0.08207 0.41512706,0.258445 0.61014636,0.356002 1.05458363,0.527544 2.45756273,0.859833 4.03379043,0.955385 0.3106598,0.01883 1.1948012,0.01888 1.5064152,9e-5 1.8964906,-0.11439 3.5609228,-0.575816 4.6023576,-1.2759 0.06857,-0.0461 0.128142,-0.08381 0.13238,-0.08381 0.0042,0 0.0077,0.166412 0.0077,0.369804 0,0.426915 -0.0133,0.50737 -0.116748,0.70621 -0.454691,0.873972 -2.1381596,1.553174 -4.3412123,1.751477 -0.295489,0.0266 -1.4710254,0.04012 -1.7674419,0.02033 z"
     id="path3753"
     inkscape:connector-curvature="0" />
  <path
     style="fill:#ffffff;stroke-width:0.01431127"
     d="M 4.9788909,20.483717 C 3.3943342,20.396144 2.1677407,20.118566 1.2123875,19.631358 0.54470968,19.290858 0.14691651,18.897138 0.0344966,18.465529 0.01783223,18.40155 0.01288014,18.295161 0.01288014,18.001128 v -0.38141 l 0.15440979,0.101769 c 0.96749237,0.637657 2.44641657,1.077762 4.13897127,1.231694 0.8218487,0.07475 1.854833,0.06392 2.6762075,-0.02803 1.5784959,-0.176722 2.9466171,-0.6058 3.8604653,-1.210741 l 0.14669,-0.09711 -2.11e-4,0.374891 c -2.43e-4,0.432113 -0.0092,0.490279 -0.106634,0.689739 -0.244003,0.499691 -0.9320855,0.962612 -1.924951,1.295048 -0.7565009,0.253295 -1.5744541,0.407862 -2.5764327,0.486863 -0.1916711,0.01511 -1.2239786,0.02974 -1.4025044,0.01987 z"
     id="path3755"
     inkscape:connector-curvature="0" />
  <path
     style="fill:#ffffff;stroke-width:0.01431127"
     d="M 5.1076923,22.987258 C 2.4698636,22.893009 0.33271994,22.050867 0.04198018,20.991111 0.01497269,20.892668 0.0127354,20.850164 0.01621988,20.501718 l 0.0038159,-0.381586 0.07155635,0.05137 c 0.23254104,0.166935 0.73192813,0.429168 1.10039497,0.577828 0.9833695,0.396748 2.1236726,0.636919 3.4792115,0.732793 0.3333621,0.02358 1.3267452,0.02358 1.6601073,0 1.8927226,-0.133868 3.4775256,-0.579385 4.5123501,-1.268504 l 0.138813,-0.09244 0.0038,0.373896 c 0.004,0.395182 -4.65e-4,0.435724 -0.06858,0.617556 -0.04627,0.123521 -0.186938,0.324247 -0.321588,0.458898 -0.7074531,0.707452 -2.2598399,1.232408 -4.0859222,1.381696 -0.4211589,0.03443 -0.9989536,0.04845 -1.4025045,0.03403 z"
     id="path3757"
     inkscape:connector-curvature="0" />
</svg>
