<?xml version="1.0" standalone="no"?>
<!DOCTYPE svg PUBLIC "-//W3C//DTD SVG 20010904//EN"
 "http://www.w3.org/TR/2001/REC-SVG-20010904/DTD/svg10.dtd">
<svg version="1.0" xmlns="http://www.w3.org/2000/svg"
 width="512.000000pt" height="512.000000pt" viewBox="0 0 512.000000 512.000000"
 preserveAspectRatio="xMidYMid meet">
<metadata>
Created by potrace 1.11, written by Peter Selinger 2001-2013
</metadata>
<g transform="translate(0.000000,512.000000) scale(0.100000,-0.100000)"
fill="#000000" stroke="none">
<path d="M2270 5109 c-1207 -147 -2135 -1086 -2261 -2287 -17 -168 -7 -525 20
-677 97 -548 330 -1006 709 -1389 380 -385 848 -627 1407 -727 116 -21 160
-24 415 -24 307 0 408 12 640 71 904 234 1610 940 1844 1844 59 232 71 333 71
640 0 307 -12 408 -71 640 -219 844 -848 1518 -1676 1794 -128 42 -239 70
-393 97 -97 17 -168 22 -375 25 -140 1 -289 -2 -330 -7z m-439 -1515 c119 -57
177 -140 186 -268 3 -49 -14 -246 -57 -639 -33 -313 -60 -576 -58 -584 2 -8
194 285 428 652 234 367 445 692 470 723 49 62 120 115 178 133 20 7 108 14
194 16 l158 5 2 -768 3 -768 415 767 415 767 214 0 c166 0 212 -3 208 -12 -2
-7 -286 -521 -629 -1143 -584 -1056 -629 -1134 -689 -1196 -96 -99 -137 -112
-356 -117 l-173 -4 -2 769 -3 770 -435 -676 c-239 -372 -452 -695 -473 -718
-53 -58 -119 -100 -195 -123 -53 -17 -93 -20 -238 -20 -162 0 -174 1 -174 18
0 10 41 463 90 1007 50 544 90 992 90 997 0 4 -182 8 -405 8 -223 0 -405 3
-405 6 0 3 59 102 132 220 l132 215 456 -3 455 -3 66 -31z"/>
</g>
</svg>
